<svg xmlns="http://www.w3.org/2000/svg" width="12.823" height="8.765" viewBox="0 0 12.823 8.765">
  <g id="crown" transform="translate(0)">
    <path id="パス_322" data-name="パス 322" d="M12.678,83.495a.376.376,0,0,0-.419-.029l-3.118,1.8L6.735,81.185a.376.376,0,0,0-.647,0L3.681,85.268l-3.118-1.8a.376.376,0,0,0-.549.429l1.612,5.6a.376.376,0,0,0,.361.272h8.847a.376.376,0,0,0,.361-.272l1.612-5.6A.376.376,0,0,0,12.678,83.495Z" transform="translate(0 -81)" fill="#a16d40"/>
    <path id="パス_323" data-name="パス 323" d="M262.267,83.495a.376.376,0,0,0-.419-.029l-3.118,1.8-2.406-4.083A.376.376,0,0,0,256,81v8.765h4.423a.376.376,0,0,0,.361-.272l1.612-5.6A.376.376,0,0,0,262.267,83.495Z" transform="translate(-249.589 -81)" fill="#844c1a"/>
    <path id="パス_324" data-name="パス 324" d="M19.781,263.241l3.545,2.05,2.127-1.805a.376.376,0,0,1,.486,0l2.128,1.805,3.545-2.05-.3,1.041-3.1,1.791a.375.375,0,0,1-.431-.039l-2.086-1.77-2.086,1.77a.375.375,0,0,1-.431.039l-3.1-1.791h0Z" transform="translate(-19.286 -258.677)" fill="#ffcda1"/>
    <path id="パス_325" data-name="パス 325" d="M258.372,265.29l-2.128-1.805a.375.375,0,0,0-.243-.089v.868l2.086,1.77a.375.375,0,0,0,.431.039l3.1-1.791.3-1.041Z" transform="translate(-249.59 -258.676)" fill="#f5ad6e"/>
  </g>
</svg>
