<svg xmlns="http://www.w3.org/2000/svg" width="18.183" height="19.2" viewBox="0 0 18.183 19.2">
  <g id="management" transform="translate(-503.375 -423.9)">
    <g id="パス_320" data-name="パス 320" fill="none" stroke-miterlimit="10">
      <path d="M518.277,435.1a5.872,5.872,0,0,0,0-3.206l1.627-.939c.366-.212-1.134-2.81-1.5-2.6l-1.625.938A5.984,5.984,0,0,0,514,427.7V425.7c0-.272-3-.272-3,0V427.7a5.989,5.989,0,0,0-2.779,1.6L506.5,428.3c-.236-.136-1.736,2.462-1.5,2.6l1.724,1a5.873,5.873,0,0,0,0,3.206l-1.724,1c-.236.136,1.264,2.734,1.5,2.6l1.722-.994A5.989,5.989,0,0,0,511,439.3v1.88c0,.423,3,.423,3,0V439.3a5.984,5.984,0,0,0,2.779-1.6l1.625.938c.366.211,1.866-2.387,1.5-2.6Z" stroke="none"/>
      <path d="M 512.5 441.500244140625 C 513.25 441.500244140625 514 441.3945007324219 514 441.1830139160156 L 514 439.3030090332031 C 515.0709838867188 439.0270080566406 516.0280151367188 438.4679870605469 516.7789916992188 437.7030029296875 L 518.4039916992188 438.6409912109375 C 518.418212890625 438.6492004394531 518.4342651367188 438.6531677246094 518.4517822265625 438.6531677246094 C 518.884033203125 438.6532897949219 520.2557373046875 436.2457580566406 519.9039916992188 436.0419921875 L 518.2769775390625 435.1029968261719 C 518.4180297851562 434.5920104980469 518.5 434.0559997558594 518.5 433.5 C 518.5 432.9440002441406 518.4180297851562 432.4079895019531 518.2769775390625 431.8970031738281 L 519.9039916992188 430.9580078125 C 520.2557373046875 430.7542724609375 518.8841552734375 428.3468322753906 518.4517822265625 428.3468322753906 C 518.4342041015625 428.3468322753906 518.4182739257812 428.3507690429688 518.4039916992188 428.3590087890625 L 516.7789916992188 429.2969970703125 C 516.0280151367188 428.5320129394531 515.0709838867188 427.9729919433594 514 427.6969909667969 L 514 425.7040100097656 C 514 425.5680236816406 513.25 425.5 512.5 425.5 C 511.75 425.5 511 425.5680236816406 511 425.7040100097656 L 511 427.6969909667969 C 509.9289855957031 427.9729919433594 508.9729919433594 428.5320129394531 508.2210083007812 429.2969970703125 L 506.4989929199219 428.3030090332031 C 506.4929809570312 428.299560546875 506.4861145019531 428.2978515625 506.478515625 428.2978515625 C 506.187744140625 428.2978515625 504.7690124511719 430.7684631347656 504.9989929199219 430.9010009765625 L 506.7229919433594 431.8970031738281 C 506.5820007324219 432.4079895019531 506.5 432.9440002441406 506.5 433.5 C 506.5 434.0559997558594 506.5820007324219 434.5920104980469 506.7229919433594 435.1029968261719 L 504.9989929199219 436.0989990234375 C 504.7690124511719 436.2315063476562 506.1876220703125 438.7021484375 506.478515625 438.7021484375 C 506.4861450195312 438.7021484375 506.4929809570312 438.7004699707031 506.4989929199219 438.6969909667969 L 508.2210083007812 437.7030029296875 C 508.9729919433594 438.4679870605469 509.9289855957031 439.0270080566406 511 439.3030090332031 L 511 441.1830139160156 C 511 441.3945007324219 511.75 441.500244140625 512.5 441.500244140625 M 512.5 443.1002502441406 C 512.1539916992188 443.1002502441406 511.6429443359375 443.0817260742188 511.1731262207031 442.9933776855469 C 509.5278625488281 442.68408203125 509.3999938964844 441.5295104980469 509.3999938964844 441.1830139160156 L 509.3999938964844 440.4334716796875 C 508.9219665527344 440.2204284667969 508.4673767089844 439.9587097167969 508.0438232421875 439.6527099609375 L 507.2988586425781 440.0827026367188 C 507.0494995117188 440.2264404296875 506.7661437988281 440.3021545410156 506.478515625 440.3021545410156 C 505.4776916503906 440.3021545410156 504.9159851074219 439.5098571777344 504.3358154296875 438.5526733398438 C 504.1247253417969 438.2044372558594 503.6157836914062 437.3271179199219 503.4488220214844 436.7029418945312 C 503.1824035644531 435.7069702148438 503.6870727539062 435.0083312988281 504.2001647949219 434.7126770019531 L 504.9423522949219 434.2839050292969 C 504.9141540527344 434.0216369628906 504.8999938964844 433.7599792480469 504.8999938964844 433.5 C 504.8999938964844 433.2400207519531 504.9141540527344 432.9783630371094 504.9423522949219 432.7160949707031 L 504.1986083984375 432.2864074707031 C 503.6870422363281 431.9916076660156 503.1824035644531 431.29296875 503.4488525390625 430.2969970703125 C 503.6158142089844 429.6728820800781 504.1247863769531 428.7955322265625 504.3358764648438 428.4472961425781 C 504.9160461425781 427.4901428222656 505.4777526855469 426.6978454589844 506.478515625 426.6978454589844 C 506.7658386230469 426.6978454589844 507.0489501953125 426.7734069824219 507.2972717285156 426.9163818359375 L 508.0438232421875 427.3473205566406 C 508.4673767089844 427.0412902832031 508.9219665527344 426.7795715332031 509.3999938964844 426.5665283203125 L 509.3999938964844 425.7040100097656 C 509.3999938964844 425.1378173828125 509.7284240722656 424.3746032714844 510.6539611816406 424.0868835449219 C 510.8299865722656 424.0321655273438 511.0278930664062 423.99267578125 511.2767333984375 423.9625854492188 C 511.6104736328125 423.9222412109375 512.044921875 423.9000244140625 512.5 423.9000244140625 C 512.955078125 423.9000244140625 513.3895263671875 423.9222412109375 513.7232666015625 423.9625854492188 C 513.9721069335938 423.99267578125 514.1699829101562 424.0321655273438 514.3460693359375 424.0868835449219 C 515.2716064453125 424.3746032714844 515.5999755859375 425.1378173828125 515.5999755859375 425.7040100097656 L 515.5999755859375 426.5663757324219 C 516.0784301757812 426.7794494628906 516.532958984375 427.0411071777344 516.9564819335938 427.3471374511719 L 517.6041259765625 426.9732971191406 C 517.8615112304688 426.824951171875 518.154296875 426.746826171875 518.4517822265625 426.746826171875 C 519.4418334960938 426.746826171875 520.0887451171875 427.548583984375 520.5910034179688 428.3328552246094 C 520.7462158203125 428.5751953125 521.2682495117188 429.4242553710938 521.4700927734375 430.17529296875 C 521.7657470703125 431.2756042480469 521.2691650390625 432.0162963867188 520.7059326171875 432.342529296875 L 520.0577392578125 432.7166442871094 C 520.0858764648438 432.9786682128906 520.0999755859375 433.2402038574219 520.0999755859375 433.5 C 520.0999755859375 433.7597961425781 520.0858764648438 434.0213317871094 520.0577392578125 434.2833862304688 L 520.7037353515625 434.6562194824219 C 521.2691650390625 434.9837036132812 521.7657470703125 435.724365234375 521.4700927734375 436.82470703125 C 521.2682495117188 437.5757446289062 520.7462158203125 438.4248046875 520.591064453125 438.6671447753906 C 520.0888061523438 439.451416015625 519.44189453125 440.253173828125 518.4517822265625 440.253173828125 C 518.1534423828125 440.2529907226562 517.8607788085938 440.1747741699219 517.6044921875 440.0269470214844 L 516.9564819335938 439.6528930664062 C 516.532958984375 439.9588928222656 516.0784301757812 440.2205505371094 515.5999755859375 440.4336547851562 L 515.5999755859375 441.1830139160156 C 515.5999755859375 441.5295104980469 515.4721069335938 442.68408203125 513.8268432617188 442.9933776855469 C 513.3570556640625 443.0817260742188 512.8460083007812 443.1002502441406 512.5 443.1002502441406 Z" stroke="none" fill="#383b47"/>
    </g>
    <g id="楕円形_62" data-name="楕円形 62" transform="translate(510.5 431.5)" fill="none" stroke="#383b47" stroke-miterlimit="10" stroke-width="1.6">
      <circle cx="2" cy="2" r="2" stroke="none"/>
      <circle cx="2" cy="2" r="2.8" fill="none"/>
    </g>
  </g>
</svg>
