<svg xmlns="http://www.w3.org/2000/svg" width="260" height="59.477" viewBox="0 0 260 59.477">
  <g id="グループ_666" data-name="グループ 666" transform="translate(0 0.05)">
    <path id="パス_153" data-name="パス 153" d="M320.025,57.768a.682.682,0,0,1-.722-.721V22.781a.736.736,0,0,1,.144-.649.891.891,0,0,1,.577-.289h6.781L291.1,1.573l-35.419,20.27h6.276a1.025,1.025,0,0,1,.433.144l.216.144a.656.656,0,0,1,.289.577V57.046a.721.721,0,1,1-1.443,0V23.214h-8.729a.721.721,0,1,1,0-1.443h.072L290.738.058a.655.655,0,0,1,.721,0l38.377,21.785a.632.632,0,0,1,.361.721.783.783,0,0,1-.577.577l-.217.072h-8.584V56.9A.926.926,0,0,1,320.025,57.768Z" transform="translate(-70.215 0)"/>
    <g id="グループ_220" data-name="グループ 220" transform="translate(230.189 45.793)">
      <rect id="長方形_936" data-name="長方形 936" width="10.099" height="11.542"/>
    </g>
    <g id="グループ_221" data-name="グループ 221" transform="translate(196.862 20.545)">
      <path id="パス_154" data-name="パス 154" d="M275.785,35.966c-.072.072-.289.072-.577.144l-.793.072c-.216,0-.361.072-.505.072h-.577a.433.433,0,0,1-.288-.072c-.072-.072-.144-.072-.144-.216a.265.265,0,0,1,.072-.216,3.128,3.128,0,0,1,.361-.072h.649c.144,0,.216,0,.289-.072a.719.719,0,0,0,.289-.072,6.043,6.043,0,0,0,.721-.144.155.155,0,0,0,.144-.144c.072-.072.072-.144.144-.144s.144.072.288.144a.546.546,0,0,1,.144.289Q275.894,35.966,275.785,35.966Z" transform="translate(-272.9 -30.339)"/>
      <path id="パス_155" data-name="パス 155" d="M284.317,36.586q-.108.216-.216.216a.265.265,0,0,1-.216-.072c-.072,0-.144-.072-.289-.144a15.621,15.621,0,0,0-1.876-.866c-.361-.144-.721-.216-1.226-.361s-.866-.216-1.082-.289l.072,1.515a1.07,1.07,0,0,0,.072.5.545.545,0,0,1,.072.289c0,.072-.072.144-.144.216s-.144.072-.289.072a.191.191,0,0,1-.216-.216V36.73a6.109,6.109,0,0,0-.072-.938v-.866l-.072-.072a.252.252,0,0,1-.072-.144c0-.072-.072-.144-.072-.216V34.35c0-.072,0-.072.072-.144a.252.252,0,0,1,.144-.072c-.072-1.948-.072-3.03-.072-3.318V29.733a1.269,1.269,0,0,0-.433.072c-.216,0-.433.072-.577.072a7.434,7.434,0,0,0-1.154.361,2.255,2.255,0,0,0-.721.361c-.072.072-.144.072-.216.144-.072,0-.144.072-.216.072s-.144,0-.144-.072a.265.265,0,0,1-.072-.216c0-.144.216-.289.721-.5a10.214,10.214,0,0,1,1.587-.5,5.18,5.18,0,0,1,1.226-.144c.5,0,.938-.072,1.371-.072a7.055,7.055,0,0,1,1.876.216,2.215,2.215,0,0,1,1.154.649,1.65,1.65,0,0,1,0,2.236,3.193,3.193,0,0,1-1.082.866,9.309,9.309,0,0,1-1.876.866,1.449,1.449,0,0,0-.577.289,2.844,2.844,0,0,1-.433.144v.072a24.328,24.328,0,0,1,2.453.649l.216.072c.866.289,1.443.433,1.876.577s.577.289.577.361A.546.546,0,0,1,284.317,36.586Zm-1.587-6.2a2.635,2.635,0,0,0-1.01-.5,5.446,5.446,0,0,0-1.659-.216H279.2V30.6l.072,1.876.072,1.443a2.839,2.839,0,0,0,.433-.144,3.519,3.519,0,0,0,.5-.216,7.259,7.259,0,0,0,2.164-1.154,1.648,1.648,0,0,0,.721-1.371A1.7,1.7,0,0,0,282.73,30.382Z" transform="translate(-273.569 -28.723)"/>
      <path id="パス_156" data-name="パス 156" d="M293.072,35.185a2.9,2.9,0,0,1-.289.938,3.337,3.337,0,0,1-.938,1.3,2.007,2.007,0,0,1-1.515.577,1.7,1.7,0,0,1-1.226-.433,1.763,1.763,0,0,1-.5-1.443,4.137,4.137,0,0,1,.433-1.8,4.461,4.461,0,0,1,1.082-1.443,2.27,2.27,0,0,1,1.371-.577,1.219,1.219,0,0,1,.721.216.586.586,0,0,1,.288.577,1.109,1.109,0,0,1-.433.793,3.009,3.009,0,0,1-1.154.649,9.289,9.289,0,0,1-1.515.433,5.653,5.653,0,0,0-.144,1.01,1.41,1.41,0,0,0,.289,1.01,1.246,1.246,0,0,0,.938.361,1.816,1.816,0,0,0,1.443-.649,7.11,7.11,0,0,0,.938-1.443.252.252,0,0,0,.072-.144.223.223,0,0,0,.072-.144A.315.315,0,0,1,293.072,35.185Zm-1.3-2.308a.915.915,0,0,0-.433-.072,1.386,1.386,0,0,0-.866.289,2.046,2.046,0,0,0-.649.721,6.658,6.658,0,0,0-.361.721,8.977,8.977,0,0,0,1.154-.289c.361-.144.721-.361,1.01-.5a.687.687,0,0,0,.433-.5A.479.479,0,0,0,291.774,32.877Z" transform="translate(-277.275 -29.559)"/>
      <path id="パス_157" data-name="パス 157" d="M300.822,37.35c.072.072.072.072.072.144a.548.548,0,0,1-.144.289c-.072.144-.144.144-.216.144-.144,0-.216-.072-.289-.216a1.407,1.407,0,0,1-.072-.577V35.041a.55.55,0,0,0-.144-.361c-.361.577-.649,1.082-.938,1.515a4.6,4.6,0,0,1-1.154,1.226,2.291,2.291,0,0,1-1.443.577.745.745,0,0,1-.794-.794,3.321,3.321,0,0,1,.433-1.3,10.831,10.831,0,0,1,1.082-1.659,7.983,7.983,0,0,1,1.3-1.371,4.891,4.891,0,0,1,.649-.433,1.026,1.026,0,0,1,.433-.144c.144,0,.216.072.361.144s.217.216.361.289a1.042,1.042,0,0,1,.144.5,1.163,1.163,0,0,1-.217.649l.217-.072c.072,0,.144.072.144.289v2.958A1.352,1.352,0,0,0,300.822,37.35Zm-2.957-.433a4.855,4.855,0,0,0,1.01-1.082c.289-.433.649-.938,1.01-1.587a2.566,2.566,0,0,0,.144-.721,1.026,1.026,0,0,0-.144-.433c-.072-.144-.216-.144-.361-.144a1.346,1.346,0,0,0-.721.361,5.635,5.635,0,0,0-1.082,1.154,8.181,8.181,0,0,0-.938,1.443,2.278,2.278,0,0,0-.361,1.154c0,.216.072.361.289.361A1.652,1.652,0,0,0,297.864,36.917Z" transform="translate(-279.253 -29.559)"/>
      <path id="パス_158" data-name="パス 158" d="M305.593,36.724a.54.54,0,0,1-.361.072c-.072,0-.144-.144-.289-.361a3.341,3.341,0,0,1-.144-1.01c0-.866,0-1.948.072-3.174,0-1.226.072-2.164.072-2.813a2.107,2.107,0,0,1,.144-.649.368.368,0,0,1,.361-.289c.072,0,.072,0,.144.072s0,.216,0,.361v.289c-.144,2.02-.216,3.968-.216,5.915a3.719,3.719,0,0,0,.144.794,1.117,1.117,0,0,1,.144.433C305.738,36.651,305.666,36.724,305.593,36.724Z" transform="translate(-281.788 -28.5)"/>
      <path id="パス_159" data-name="パス 159" d="M292.715,46.061a3.828,3.828,0,0,1-1.01.361c-.433.144-.794.216-1.082.289-.433.072-.866.144-1.371.216a4.922,4.922,0,0,1-.866.072v2.381a10.993,10.993,0,0,1,1.371-.216l.433-.072a2.42,2.42,0,0,0,1.154-.433c.144-.072.216-.144.289-.144s.072,0,.144.072a.223.223,0,0,1,.072.144q0,.216-.433.433a4.171,4.171,0,0,1-1.01.361q-.433.108-1.082.216a5.392,5.392,0,0,0-.794.144,9.494,9.494,0,0,0,.433,2.958,2.106,2.106,0,0,0,.649.144c.216,0,.5.072.866.072a3.655,3.655,0,0,0,.938-.144,1.691,1.691,0,0,0,.721-.361c.216-.144.289-.289.289-.361v-.144l-.072-.144a.252.252,0,0,1-.072-.144c0-.072-.072-.072-.072-.144s.072-.144.289-.144a.375.375,0,0,1,.289.144.551.551,0,0,1,.144.361,1.148,1.148,0,0,1-.361.721,2.593,2.593,0,0,1-.866.577,3.5,3.5,0,0,1-1.3.216,5.132,5.132,0,0,1-1.154-.072,1.36,1.36,0,0,1-.649-.289,1.9,1.9,0,0,1-.361-1.082c-.072-.5-.144-1.226-.216-2.092a1.07,1.07,0,0,1-.5.072c-.216,0-.289.072-.433.072s-.144,0-.216-.072a.265.265,0,0,1-.072-.216v-.144a.071.071,0,0,1,.072-.072c.289,0,.433-.072.577-.072l.5-.072c0-1.01-.072-1.8-.072-2.453h-.793c-.072,0-.144,0-.144-.072-.072-.072-.072-.072-.072-.144,0-.216.144-.289.361-.361a.784.784,0,0,0,.361-.072c.144-.072.216,0,.288,0a.655.655,0,0,1,.505-.216.071.071,0,0,1,.072.072v.144c.505,0,1.082-.072,1.8-.144q.649-.108,2.164-.433l.433-.072a.155.155,0,0,1,.144.144C293,45.916,292.86,45.989,292.715,46.061Z" transform="translate(-276.773 -33.292)"/>
      <path id="パス_160" data-name="パス 160" d="M300.123,53.277a2.856,2.856,0,0,1-1.082.721,3.126,3.126,0,0,1-1.37.289c-.361,0-.577,0-.649-.072-.144-.072-.144-.144-.144-.289,0-.072.072-.216.289-.361.144-.144.289-.289.36-.289s.145,0,.145.072a.071.071,0,0,1-.072.072.071.071,0,0,0-.072.072.253.253,0,0,0,.145.072,3.119,3.119,0,0,0,.361.072,5.658,5.658,0,0,0,1.01-.144,3.913,3.913,0,0,0,.794-.433.71.71,0,0,0,.072-1.082,1.163,1.163,0,0,0-.5-.289,5.645,5.645,0,0,0-1.01-.216c-.505-.144-.938-.216-1.154-.289a1.4,1.4,0,0,1-.649-.361.73.73,0,0,1-.288-.5,1.351,1.351,0,0,1,.577-1.01,4.223,4.223,0,0,1,1.226-.721,6.15,6.15,0,0,1,1.082-.289c.288,0,.361.072.361.216a.434.434,0,0,1-.072.289c-.072.144-.144.144-.288.144-.072,0-.072,0-.144-.072-.072,0-.072-.072-.144-.072a6.044,6.044,0,0,0-.721.144,1.645,1.645,0,0,0-.866.433.878.878,0,0,0-.433.721c0,.216.072.289.289.433a11.926,11.926,0,0,0,1.154.361c.072,0,.144.072.216.072a.265.265,0,0,1,.216.072,4.212,4.212,0,0,1,1.371.5.979.979,0,0,1,.5.794A2.01,2.01,0,0,1,300.123,53.277Z" transform="translate(-279.42 -34.017)"/>
      <path id="パス_161" data-name="パス 161" d="M308.282,48.841a1.117,1.117,0,0,1-.577.144c-.721.144-1.082.216-1.154.216l-.721.144v1.226a5.828,5.828,0,0,0,.072,1.154,3.343,3.343,0,0,0,.144,1.01,2.857,2.857,0,0,1,.144.433c0,.072-.072.144-.144.216a.434.434,0,0,1-.288.072c-.072,0-.072,0-.144-.072a.252.252,0,0,1-.072-.144c-.072-.072-.072-.289-.144-.577a4.106,4.106,0,0,1-.072-.938c0-.289-.072-.649-.072-1.082V49.418a8.385,8.385,0,0,0-1.3.289c-.433.072-.649.144-.721.144a.546.546,0,0,1-.289-.072c-.144-.072-.144-.144-.144-.216a.265.265,0,0,1,.072-.216,3.125,3.125,0,0,1,.361-.072,1.408,1.408,0,0,0,.5-.072,1.27,1.27,0,0,1,.433-.072,6.916,6.916,0,0,0,1.082-.216V46.749a1.023,1.023,0,0,1,.144-.433.333.333,0,0,1,.361-.216h.144v.144a1.545,1.545,0,0,1-.072.433,2.976,2.976,0,0,0-.072.866v1.226c.36-.072,1.01-.216,2.02-.433a.155.155,0,0,0,.144-.144.155.155,0,0,1,.144-.144c.072,0,.144.072.288.144a.547.547,0,0,1,.144.289C308.427,48.7,308.427,48.769,308.282,48.841Z" transform="translate(-281.231 -33.404)"/>
      <path id="パス_162" data-name="パス 162" d="M316.222,53.35c.072.072.072.072.072.144a.546.546,0,0,1-.144.289c-.072.144-.144.144-.216.144-.144,0-.216-.072-.289-.216a1.406,1.406,0,0,1-.072-.577V51.041a.551.551,0,0,0-.144-.361c-.361.577-.649,1.082-.938,1.515a4.6,4.6,0,0,1-1.154,1.226,2.291,2.291,0,0,1-1.443.577.745.745,0,0,1-.793-.794,3.321,3.321,0,0,1,.433-1.3,10.829,10.829,0,0,1,1.082-1.659,7.983,7.983,0,0,1,1.3-1.371,4.9,4.9,0,0,1,.649-.433A1.026,1.026,0,0,1,315,48.3c.144,0,.216.072.361.144s.216.216.361.289a1.043,1.043,0,0,1,.144.5,1.164,1.164,0,0,1-.216.649l.216-.072c.072,0,.144.072.144.289v2.958A1.343,1.343,0,0,0,316.222,53.35Zm-2.958-.433a4.853,4.853,0,0,0,1.01-1.082c.289-.433.649-.938,1.01-1.587a2.566,2.566,0,0,0,.144-.721,1.026,1.026,0,0,0-.144-.433c-.072-.144-.216-.144-.361-.144a1.346,1.346,0,0,0-.721.361,5.638,5.638,0,0,0-1.082,1.154,8.181,8.181,0,0,0-.938,1.443,2.278,2.278,0,0,0-.361,1.154c0,.216.072.361.288.361A1.652,1.652,0,0,0,313.264,52.917Z" transform="translate(-283.544 -34.017)"/>
      <path id="パス_163" data-name="パス 163" d="M324.682,48.841a1.118,1.118,0,0,1-.577.144c-.721.144-1.082.216-1.154.216l-.721.144v1.226a5.838,5.838,0,0,0,.072,1.154,3.343,3.343,0,0,0,.144,1.01,2.837,2.837,0,0,1,.144.433c0,.072-.072.144-.144.216a.434.434,0,0,1-.289.072c-.072,0-.072,0-.144-.072a.252.252,0,0,1-.072-.144c-.072-.072-.072-.289-.144-.577a4.113,4.113,0,0,1-.072-.938c0-.289-.072-.649-.072-1.082V49.418a8.39,8.39,0,0,0-1.3.289c-.433.072-.649.144-.721.144a.545.545,0,0,1-.288-.072c-.144-.072-.144-.144-.144-.216a.265.265,0,0,1,.072-.216,3.12,3.12,0,0,1,.361-.072,1.409,1.409,0,0,0,.505-.072,1.269,1.269,0,0,1,.433-.072,6.924,6.924,0,0,0,1.082-.216V46.749a1.025,1.025,0,0,1,.144-.433.333.333,0,0,1,.361-.216h.144v.144a1.544,1.544,0,0,1-.072.433,2.976,2.976,0,0,0-.072.866v1.226c.361-.072,1.01-.216,2.02-.433a.155.155,0,0,0,.144-.144.155.155,0,0,1,.144-.144c.072,0,.144.072.289.144a.547.547,0,0,1,.144.289A.772.772,0,0,1,324.682,48.841Z" transform="translate(-285.801 -33.404)"/>
      <path id="パス_164" data-name="パス 164" d="M332.272,51.185a2.9,2.9,0,0,1-.289.938,3.338,3.338,0,0,1-.938,1.3,2.007,2.007,0,0,1-1.515.577,1.7,1.7,0,0,1-1.226-.433,1.763,1.763,0,0,1-.5-1.443,4.136,4.136,0,0,1,.433-1.8,4.459,4.459,0,0,1,1.082-1.443,2.269,2.269,0,0,1,1.371-.577,1.219,1.219,0,0,1,.721.216.586.586,0,0,1,.289.577,1.11,1.11,0,0,1-.433.794,3.009,3.009,0,0,1-1.154.649,9.3,9.3,0,0,1-1.515.433,5.661,5.661,0,0,0-.144,1.01,1.41,1.41,0,0,0,.289,1.01,1.246,1.246,0,0,0,.938.361,1.816,1.816,0,0,0,1.443-.649,7.1,7.1,0,0,0,.938-1.443.252.252,0,0,0,.072-.144.223.223,0,0,0,.072-.144A.316.316,0,0,1,332.272,51.185Zm-1.3-2.308a.916.916,0,0,0-.433-.072,1.387,1.387,0,0,0-.866.289,2.047,2.047,0,0,0-.649.721,6.661,6.661,0,0,0-.361.721,8.971,8.971,0,0,0,1.154-.289c.361-.144.721-.361,1.01-.5a.687.687,0,0,0,.433-.5A.479.479,0,0,0,330.974,48.877Z" transform="translate(-288.197 -34.017)"/>
      <path id="パス_165" data-name="パス 165" d="M337.885,51.966c-.072.072-.289.072-.577.144l-.793.072c-.216,0-.361.072-.5.072h-.577a.434.434,0,0,1-.289-.072c-.072-.072-.144-.072-.144-.216a.265.265,0,0,1,.072-.216,3.124,3.124,0,0,1,.361-.072h.649c.144,0,.216,0,.289-.072a.719.719,0,0,0,.288-.072,6.043,6.043,0,0,0,.721-.144.155.155,0,0,0,.144-.144c.072-.072.072-.144.144-.144s.144.072.289.144a.547.547,0,0,1,.144.289Q337.994,51.966,337.885,51.966Z" transform="translate(-290.203 -34.797)"/>
    </g>
    <g id="グループ_222" data-name="グループ 222" transform="translate(0 11.38)">
      <path id="パス_166" data-name="パス 166" d="M29.36,46.745a33.622,33.622,0,0,1-7.069,6.781,16.13,16.13,0,0,1-9.738,3.246,13.076,13.076,0,0,1-9.089-3.246Q0,50.28,0,44a36.363,36.363,0,0,1,1.587-9.666,52.473,52.473,0,0,1,3.535-9.306A23.537,23.537,0,0,1,9.955,18.4c1.8-1.731,3.607-2.669,5.482-2.6a4.753,4.753,0,0,1,4.112,1.948,7.934,7.934,0,0,1,1.443,4.761,5.789,5.789,0,0,1-.433,2.164,8.408,8.408,0,0,1-.938,1.8c-.361.5-.577.721-.721.721-.361,0-.5-.216-.5-.577a3.542,3.542,0,0,1,.216-.866,3.56,3.56,0,0,0,.216-1.082,9.316,9.316,0,0,0-.361-2.885,3.493,3.493,0,0,0-1.226-1.948,3.251,3.251,0,0,0-2.02-.794c-2.958,0-5.771,2.813-8.44,8.584A42.829,42.829,0,0,0,4.112,35.42a38.851,38.851,0,0,0-1.154,8.368A12.073,12.073,0,0,0,4.04,48.909a8.869,8.869,0,0,0,3.246,3.679,9.577,9.577,0,0,0,4.977,1.443,15.864,15.864,0,0,0,8.224-2.092,41.063,41.063,0,0,0,7.358-5.555c.072-.072.361-.577.866-1.371.5-.866.866-1.3,1.154-1.226a.562.562,0,0,1,.5.216,1.44,1.44,0,0,1,.144.649A9.29,9.29,0,0,1,29.36,46.745Z" transform="translate(0 -15.795)"/>
      <path id="パス_167" data-name="パス 167" d="M61.879,36.474c-.216.649-.577,1.587-1.082,2.885q-.541,1.3-1.515,3.9a83.734,83.734,0,0,0-3.607,14.788c-.144.866-.216,1.876-.361,2.885A18.432,18.432,0,0,0,55.17,63.6a2.659,2.659,0,0,0,.361,1.226,1.494,1.494,0,0,1,.361.721,2.246,2.246,0,0,1-.649,1.082,9.637,9.637,0,0,1-1.515,1.443,2.537,2.537,0,0,1-1.371.649c-.721,0-1.01-.289-1.01-.866a61.249,61.249,0,0,1,1.371-7.791c.938-4.472,1.659-7.863,2.308-10.243a19.893,19.893,0,0,1-2.236,2.164,3.546,3.546,0,0,1-2.453.721c-1.371,0-2.813-1.154-4.184-3.318a66.244,66.244,0,0,1-4.184-7.935l-.5-1.01a20.93,20.93,0,0,0-1.443-2.6,5.214,5.214,0,0,1-.721-1.226c0-.144.144-.289.361-.361a3.621,3.621,0,0,1,.866-.144c1.154,0,2.164,1.082,3.03,3.318a71.169,71.169,0,0,0,3.679,7.719c1.226,2.164,2.453,3.246,3.823,3.246a3.4,3.4,0,0,0,2.308-.866,7.872,7.872,0,0,0,1.659-2.092,28.8,28.8,0,0,0,1.371-3.1c.577-1.371.938-2.453,1.226-3.318,1.154-3.318,1.731-5.194,1.876-5.771a6.006,6.006,0,0,1,.5-1.515.693.693,0,0,1,.649-.433,1.732,1.732,0,0,1,1.082.433,1.135,1.135,0,0,1,.5.938A6.6,6.6,0,0,1,61.879,36.474Z" transform="translate(-10.95 -20.672)"/>
      <path id="パス_168" data-name="パス 168" d="M100.9,36.9a1.571,1.571,0,0,1-.5.649,3.235,3.235,0,0,1-1.515.5c-.793.144-1.3.216-1.587.289l.433,1.948a34.858,34.858,0,0,1,.721,3.607c.577,3.535,1.226,6.492,1.876,8.945.144.793.216,1.3.216,1.371a1.028,1.028,0,0,1-.433.866,1.564,1.564,0,0,1-1.01.361,1.228,1.228,0,0,1-.938-.577,8.4,8.4,0,0,1-.577-.938c-.289-1.154-.577-2.525-.794-3.968s-.5-3.174-.866-5.266c-.144-.866-.361-2.02-.649-3.39s-.5-2.236-.577-2.6c-2.02.289-5.555.794-10.532,1.587l-3.03.5-1.154,3.03-1.515,4.112c-1.226,3.751-2.164,6.637-2.669,8.729a2.05,2.05,0,0,1-.649,1.226,1.435,1.435,0,0,1-1.154.5,1.8,1.8,0,0,1-.938-.289.971.971,0,0,1-.361-.866,9.845,9.845,0,0,1,.649-2.381c.433-1.226.649-1.948.721-2.236q.216-.541.866-2.381c.433-1.371,1.082-2.958,1.8-4.905s1.226-3.174,1.443-3.823c-1.8.433-3.1.721-3.968.938a12.59,12.59,0,0,1-2.453.5,1.028,1.028,0,0,1-.866-.433,1.587,1.587,0,0,1-.289-.938,1.22,1.22,0,0,1,.289-.866,4.649,4.649,0,0,1,1.01-.433c1.3-.289,2.741-.577,4.184-.866s2.525-.5,3.03-.577a23.455,23.455,0,0,0,.794-2.525c.144-.433.361-1.01.577-1.659s.5-1.515.794-2.525l.793-2.669c1.371-4.617,2.164-7.286,2.381-7.935a6.031,6.031,0,0,1,.5-1.154.693.693,0,0,1,.649-.433,5.109,5.109,0,0,1,1.876.361,2.748,2.748,0,0,0,.361-.433,1.352,1.352,0,0,1,.5-.433,2.134,2.134,0,0,1,.721-.144q.974,0,2.164,2.164a37.216,37.216,0,0,1,2.308,5.05c.433,1.154,1.01,2.885,1.659,5.122.649,2.308,1.082,3.751,1.3,4.472a5.788,5.788,0,0,0,1.3-.289,2.351,2.351,0,0,1,.721-.216,6.649,6.649,0,0,0,.577-.361,6.651,6.651,0,0,1,.577-.361.79.79,0,0,1,.577,0,1.309,1.309,0,0,1,.649,1.3C101.114,36.4,101.042,36.613,100.9,36.9Zm-7.647-4.4A40.893,40.893,0,0,0,91.736,27.6a37.882,37.882,0,0,0-1.8-3.968,7.909,7.909,0,0,0-1.876-2.6L87.48,22.4a32.38,32.38,0,0,0-1.515,3.535c-.866,2.453-2.236,6.564-4.04,12.335l6.06-1.01,4.977-.721,1.371-.216A35.765,35.765,0,0,1,93.251,32.5Z" transform="translate(-19.671 -16.771)"/>
      <path id="パス_169" data-name="パス 169" d="M147.213,54.044q-.541.866-1.082.866a2.546,2.546,0,0,1-1.01-.216,13.606,13.606,0,0,1-1.371-.721,48.248,48.248,0,0,0-8.512-3.823c-1.587-.5-3.39-1.082-5.482-1.659s-3.823-1.01-4.977-1.3l.289,6.709a7.516,7.516,0,0,0,.361,2.381,5.012,5.012,0,0,1,.289,1.226,1.126,1.126,0,0,1-.577.938,1.888,1.888,0,0,1-1.226.361c-.5,0-.866-.361-1.01-1.082,0-.072-.072-.361-.144-.938a17.689,17.689,0,0,1-.144-2.308c0-.649-.072-2.092-.144-4.184,0-.721-.072-1.443-.072-2.092a14.982,14.982,0,0,1,0-1.8l-.361-.361a1.57,1.57,0,0,1-.361-.577,4.16,4.16,0,0,1-.216-1.01,3.54,3.54,0,0,1-.072-.794.819.819,0,0,1,.216-.577,2.518,2.518,0,0,1,.649-.433c-.144-8.656-.216-13.634-.144-14.86,0-1.082.072-2.164.072-3.03.072-.938.072-1.587.072-1.876-.216,0-.866.144-1.876.216-1.01.144-1.876.289-2.525.361A39.458,39.458,0,0,0,112.8,24.9a29,29,0,0,0-3.39,1.587,5.963,5.963,0,0,1-.938.5,1.83,1.83,0,0,1-.866.144,1,1,0,0,1-.721-.361,1.45,1.45,0,0,1-.289-.938c0-.649,1.154-1.443,3.318-2.236a49.834,49.834,0,0,1,7.214-2.092,42.233,42.233,0,0,1,5.555-.721c2.236-.216,4.328-.289,6.276-.289a29.257,29.257,0,0,1,8.512,1.154,11.618,11.618,0,0,1,5.266,3.1,6.627,6.627,0,0,1,1.731,4.545,8.611,8.611,0,0,1-1.948,5.627,17.67,17.67,0,0,1-4.977,4.04,84.983,84.983,0,0,1-8.44,3.823,25.934,25.934,0,0,1-2.669,1.082,14.854,14.854,0,0,0-1.8.721c0,.216,0,.361.072.433,3.751.866,7.43,1.876,11.037,2.958l1.082.289c3.751,1.154,6.564,2.092,8.368,2.741s2.669,1.226,2.669,1.587A3.429,3.429,0,0,1,147.213,54.044Zm-6.925-28.061a10.354,10.354,0,0,0-4.545-2.381,26.634,26.634,0,0,0-7.358-1.01c-2.164,0-3.463,0-4.04.072A15.19,15.19,0,0,0,124.2,24.4c-.072.866-.072,1.8-.072,2.669l.144,8.3.144,6.42a10.632,10.632,0,0,0,1.876-.5,19.877,19.877,0,0,0,2.308-.866,37.062,37.062,0,0,0,9.883-5.266,8.04,8.04,0,0,0,3.318-6.132A4.5,4.5,0,0,0,140.288,25.982Z" transform="translate(-29.702 -17.106)"/>
      <path id="パス_170" data-name="パス 170" d="M186.8,43.54a14.345,14.345,0,0,1-1.443,4.112A18.658,18.658,0,0,1,181.17,53.5a9.528,9.528,0,0,1-6.853,2.669A7.674,7.674,0,0,1,168.762,54c-1.443-1.371-2.236-3.535-2.164-6.42a18.165,18.165,0,0,1,1.948-8.007,18.545,18.545,0,0,1,4.905-6.42,9.747,9.747,0,0,1,6.276-2.453,5.729,5.729,0,0,1,3.246.866,2.751,2.751,0,0,1,1.3,2.453c0,1.226-.721,2.381-2.092,3.535a19.519,19.519,0,0,1-5.338,2.958,31.353,31.353,0,0,1-6.781,1.8A17.9,17.9,0,0,0,169.412,47a7,7,0,0,0,1.371,4.689,5.407,5.407,0,0,0,4.04,1.731,8.258,8.258,0,0,0,6.492-2.813,25.922,25.922,0,0,0,4.184-6.42c.072-.144.216-.433.361-.793s.361-.577.5-.577C186.724,42.747,186.869,43.035,186.8,43.54Zm-5.7-10.316a4.4,4.4,0,0,0-2.02-.5,6.6,6.6,0,0,0-3.823,1.3,12.671,12.671,0,0,0-3.1,3.1,11.721,11.721,0,0,0-1.587,3.174,17.993,17.993,0,0,0,5.05-1.3,21.455,21.455,0,0,0,4.472-2.381c1.226-.866,1.8-1.587,1.8-2.092A1.333,1.333,0,0,0,181.1,33.225Z" transform="translate(-46.418 -19.948)"/>
      <path id="パス_171" data-name="パス 171" d="M217.9,57.551a1.485,1.485,0,0,1,.361.649,3.466,3.466,0,0,1-.505,1.443c-.361.5-.721.793-1.01.793-.577,0-1.01-.361-1.371-1.082a6.86,6.86,0,0,1-.433-2.525c0-.866.072-3.318.216-7.5l.072-1.948a2.376,2.376,0,0,0-.577-1.731c-1.587,2.6-3.03,4.905-4.4,6.781a26.143,26.143,0,0,1-5.194,5.41,10.427,10.427,0,0,1-6.564,2.525,3.073,3.073,0,0,1-2.525-1.082,4.16,4.16,0,0,1-.866-2.741c0-1.371.649-3.246,1.948-5.7a50.879,50.879,0,0,1,4.833-7.286,39.3,39.3,0,0,1,5.843-6.06,17.839,17.839,0,0,1,3.1-2.092,4.859,4.859,0,0,1,2.02-.5,3.961,3.961,0,0,1,1.731.5,5.739,5.739,0,0,1,1.515,1.443,3.613,3.613,0,0,1,.577,2.164,5.182,5.182,0,0,1-.938,3.03l.866-.216c.361,0,.577.5.649,1.443,0,.577.072,1.659.072,3.39s.072,3.1.072,4.184c0,1.154.072,2.236.072,3.318s.072,1.948.072,2.525A.828.828,0,0,0,217.9,57.551Zm-13.345-2.02a25.29,25.29,0,0,0,4.689-4.905c1.371-1.876,2.885-4.256,4.617-7.069a8.609,8.609,0,0,0,.649-3.39,2.825,2.825,0,0,0-.649-1.876,2.195,2.195,0,0,0-1.731-.794c-.866,0-1.948.577-3.318,1.731a34.755,34.755,0,0,0-4.977,5.194,49.1,49.1,0,0,0-4.4,6.492,11.838,11.838,0,0,0-1.731,5.05c0,1.01.5,1.587,1.443,1.587A8.175,8.175,0,0,0,204.55,55.531Z" transform="translate(-54.361 -21.118)"/>
      <path id="パス_172" data-name="パス 172" d="M240.414,25.449A148.891,148.891,0,0,0,237.1,40.381a25.659,25.659,0,0,0-.361,3.39,18.033,18.033,0,0,1-.144,2.02c-.144.793-.577,1.154-1.226,1.082-.216-.072-.433-.361-.649-1.01a9.522,9.522,0,0,1-.289-2.308,13.3,13.3,0,0,1,.216-2.885c.433-2.741,1.515-8.151,3.174-16.3a7.9,7.9,0,0,1,1.01-2.669,1.792,1.792,0,0,1,1.948-1.01.477.477,0,0,1,.433.5,8.772,8.772,0,0,1-.144,1.659Q240.955,23.068,240.414,25.449Zm-4.977,30.586a2.646,2.646,0,0,1-1.515-.866,2.871,2.871,0,0,1-.649-1.515,8.343,8.343,0,0,1-.072-1.226,1.582,1.582,0,0,1,.721-1.01,1.469,1.469,0,0,1,1.154-.289c.216.072.433.144.5.433a7.486,7.486,0,0,1,.289.938,3.526,3.526,0,0,0,.577,1.371,1.969,1.969,0,0,1,.5.938,1.734,1.734,0,0,1,.144.721C237.168,56.035,236.59,56.179,235.436,56.035Z" transform="translate(-64.977 -17.149)"/>
    </g>
    <path id="パス_173" data-name="パス 173" d="M323.647,80.543H265.721a.721.721,0,0,1,0-1.443h57.854a.682.682,0,0,1,.721.721A.666.666,0,0,1,323.647,80.543Z" transform="translate(-73.837 -22.054)"/>
  </g>
</svg>
